{
  "accessors": [
    {
      "bufferView": 2,
      "componentType": 5126,
      "count": 200,
      "max": [
        13.894336700439453,
        27.494056701660156,
        13.893865585327148
      ],
      "min": [
        -13.899240493774414,
        -27.49403953552246,
        -13.89331340789795
      ],
      "type": "VEC3"
    },
    {
      "bufferView": 2,
      "byteOffset": 2400,
      "componentType": 5126,
      "count": 200,
      "max": [
        0.9957576990127563,
        0.9984550476074219,
        0.9999963045120239
      ],
      "min": [
        -0.9957401752471924,
        -0.9984501600265503,
        -0.9956914186477661
      ],
      "type": "VEC3"
    },
    {
      "bufferView": 3,
      "componentType": 5126,
      "count": 200,
      "max": [
        0.5720865726470947,
        0.9999997615814209,
        0.966095507144928,
        1.0
      ],
      "min": [
        -0.5688815116882324,
        -0.9991898536682129,
        -0.966743528842926,
        1.0
      ],
      "type": "VEC4"
    },
    {
      "bufferView": 1,
      "componentType": 5126,
      "count": 200,
      "max": [
        0.6155935525894165,
        0.7322654128074646
      ],
      "min": [
        8.148979395627975e-05,
        0.157615065574646
      ],
      "type": "VEC2"
    },
    {
      "bufferView": 0,
      "componentType": 5125,
      "count": 900,
      "type": "SCALAR"
    },
    {
      "bufferView": 2,
      "byteOffset": 4800,
      "componentType": 5126,
      "count": 633,
      "max": [
        26.25,
        18.868867874145508,
        4.8686418533325195
      ],
      "min": [
        -26.25,
        -20.0,
        -7.868344306945801
      ],
      "type": "VEC3"
    },
    {
      "bufferView": 2,
      "byteOffset": 12396,
      "componentType": 5126,
      "count": 633,
      "max": [
        1.0,
        0.9999989867210388,
        1.0
      ],
      "min": [
        -1.0,
        -0.9999251961708069,
        -1.0
      ],
      "type": "VEC3"
    },
    {
      "bufferView": 3,
      "byteOffset": 3200,
      "componentType": 5126,
      "count": 633,
      "max": [
        0.9999989867210388,
        0.9999979138374329,
        0.9919913411140442,
        1.0
      ],
      "min": [
        -0.9871729612350464,
        -0.9999979734420776,
        -1.0,
        -1.0
      ],
      "type": "VEC4"
    },
    {
      "bufferView": 1,
      "byteOffset": 1600,
      "componentType": 5126,
      "count": 633,
      "max": [
        0.9119539260864258,
        0.999918520450592
      ],
      "min": [
        8.148979395627975e-05,
        0.04688692092895508
      ],
      "type": "VEC2"
    },
    {
      "bufferView": 0,
      "byteOffset": 3600,
      "componentType": 5125,
      "count": 2868,
      "type": "SCALAR"
    },
    {
      "bufferView": 2,
      "byteOffset": 19992,
      "componentType": 5126,
      "count": 5159,
      "max": [
        20.989999771118164,
        39.88072204589844,
        34.45866775512695
      ],
      "min": [
        -20.989999771118164,
        -8.635313987731934,
        -41.8609504699707
      ],
      "type": "VEC3"
    },
    {
      "bufferView": 2,
      "byteOffset": 81900,
      "componentType": 5126,
      "count": 5159,
      "max": [
        1.0,
        0.9994914531707764,
        0.9998849034309387
      ],
      "min": [
        -1.0,
        -0.9995102882385254,
        -0.9998932480812073
      ],
      "type": "VEC3"
    },
    {
      "bufferView": 3,
      "byteOffset": 13328,
      "componentType": 5126,
      "count": 5159,
      "max": [
        1.0,
        0.999086856842041,
        0.9995717406272888,
        1.0
      ],
      "min": [
        -0.9999942779541016,
        -0.9999961853027344,
        -0.9999068975448608,
        1.0
      ],
      "type": "VEC4"
    },
    {
      "bufferView": 1,
      "byteOffset": 6664,
      "componentType": 5126,
      "count": 5159,
      "max": [
        0.999755859375,
        0.999918520450592
      ],
      "min": [
        8.148979395627975e-05,
        0.005425453186035156
      ],
      "type": "VEC2"
    },
    {
      "bufferView": 0,
      "byteOffset": 15072,
      "componentType": 5125,
      "count": 21492,
      "type": "SCALAR"
    }
  ],
  "asset": {
    "extras": {
      "author": "Scarecrow_original (https://sketchfab.com/Scarecrow_original)",
      "license": "CC-BY-4.0 (http://creativecommons.org/licenses/by/4.0/)",
      "source": "https://sketchfab.com/3d-models/lamp-88b5f6088cf8495c8b18dc08ad3ec8a9",
      "title": "Lamp"
    },
    "generator": "Sketchfab-12.66.0",
    "version": "2.0"
  },
  "bufferViews": [
    {
      "buffer": 0,
      "byteLength": 101040,
      "name": "floatBufferViews",
      "target": 34963
    },
    {
      "buffer": 0,
      "byteLength": 47936,
      "byteOffset": 101040,
      "byteStride": 8,
      "name": "floatBufferViews",
      "target": 34962
    },
    {
      "buffer": 0,
      "byteLength": 143808,
      "byteOffset": 148976,
      "byteStride": 12,
      "name": "floatBufferViews",
      "target": 34962
    },
    {
      "buffer": 0,
      "byteLength": 95872,
      "byteOffset": 292784,
      "byteStride": 16,
      "name": "floatBufferViews",
      "target": 34962
    }
  ],
  "buffers": [
    {
      "byteLength": 388656,
      "uri": "scene.bin"
    }
  ],
  "images": [
    {
      "uri": "textures/Scene_-_Root_baseColor.png"
    },
    {
      "uri": "textures/Scene_-_Root_metallicRoughness.png"
    },
    {
      "uri": "textures/Scene_-_Root_emissive.png"
    },
    {
      "uri": "textures/Scene_-_Root_normal.png"
    }
  ],
  "materials": [
    {
      "doubleSided": true,
      "emissiveFactor": [
        0.85,
        0.85,
        0.85
      ],
      "emissiveTexture": {
        "index": 2
      },
      "name": "Scene_-_Root",
      "normalTexture": {
        "index": 3
      },
      "occlusionTexture": {
        "index": 1
      },
      "pbrMetallicRoughness": {
        "baseColorTexture": {
          "index": 0
        },
        "metallicRoughnessTexture": {
          "index": 1
        }
      }
    }
  ],
  "meshes": [
    {
      "name": "1__0",
      "primitives": [
        {
          "attributes": {
            "NORMAL": 1,
            "POSITION": 0,
            "TANGENT": 2,
            "TEXCOORD_0": 3
          },
          "indices": 4,
          "material": 0,
          "mode": 4
        }
      ]
    },
    {
      "name": "2__0",
      "primitives": [
        {
          "attributes": {
            "NORMAL": 6,
            "POSITION": 5,
            "TANGENT": 7,
            "TEXCOORD_0": 8
          },
          "indices": 9,
          "material": 0,
          "mode": 4
        }
      ]
    },
    {
      "name": "3__0",
      "primitives": [
        {
          "attributes": {
            "NORMAL": 11,
            "POSITION": 10,
            "TANGENT": 12,
            "TEXCOORD_0": 13
          },
          "indices": 14,
          "material": 0,
          "mode": 4
        }
      ]
    }
  ],
  "nodes": [
    {
      "children": [
        1
      ],
      "matrix": [
        1.0,
        0.0,
        0.0,
        0.0,
        0.0,
        2.220446049250313e-16,
        -1.0,
        0.0,
        0.0,
        1.0,
        2.220446049250313e-16,
        0.0,
        0.0,
        0.0,
        0.0,
        1.0
      ],
      "name": "Sketchfab_model"
    },
    {
      "children": [
        2
      ],
      "matrix": [
        0.009999999776482582,
        0.0,
        0.0,
        0.0,
        0.0,
        0.0,
        0.009999999776482582,
        0.0,
        0.0,
        -0.009999999776482582,
        0.0,
        0.0,
        0.0,
        0.0,
        0.0,
        1.0
      ],
      "name": "91f0948a0e054097915bed3c9d9b85d4.fbx"
    },
    {
      "children": [
        3
      ],
      "name": "RootNode"
    },
    {
      "children": [
        4,
        6,
        8
      ],
      "matrix": [
        1.0,
        0.0,
        0.0,
        0.0,
        0.0,
        1.0,
        0.0,
        0.0,
        0.0,
        0.0,
        1.0,
        0.0,
        0.0,
        19.834976196289063,
        -2.381110906600952,
        1.0
      ],
      "name": "Lamp"
    },
    {
      "children": [
        5
      ],
      "matrix": [
        1.0,
        0.0,
        0.0,
        0.0,
        0.0,
        0.3420201433256693,
        0.9396926207859082,
        0.0,
        0.0,
        -0.7987387500720399,
        0.2907171299812146,
        0.0,
        0.0,
        12.12472152709961,
        -3.5187366008758545,
        1.0
      ],
      "name": "1"
    },
    {
      "mesh": 0,
      "name": "1__0"
    },
    {
      "children": [
        7
      ],
      "matrix": [
        1.0,
        0.0,
        0.0,
        0.0,
        0.0,
        1.0,
        0.0,
        0.0,
        0.0,
        0.0,
        1.0,
        0.0,
        0.0,
        -7.3349761962890625,
        0.8811107873916626,
        1.0
      ],
      "name": "2"
    },
    {
      "mesh": 1,
      "name": "2__0"
    },
    {
      "children": [
        9
      ],
      "matrix": [
        1.0,
        0.0,
        0.0,
        0.0,
        0.0,
        1.0,
        0.0,
        0.0,
        0.0,
        0.0,
        1.0,
        0.0,
        0.0,
        -4.789745330810547,
        2.6376259326934814,
        1.0
      ],
      "name": "3"
    },
    {
      "mesh": 2,
      "name": "3__0"
    }
  ],
  "samplers": [
    {
      "magFilter": 9729,
      "minFilter": 9987,
      "wrapS": 10497,
      "wrapT": 10497
    }
  ],
  "scene": 0,
  "scenes": [
    {
      "name": "Sketchfab_Scene",
      "nodes": [
        0
      ]
    }
  ],
  "textures": [
    {
      "sampler": 0,
      "source": 0
    },
    {
      "sampler": 0,
      "source": 1
    },
    {
      "sampler": 0,
      "source": 2
    },
    {
      "sampler": 0,
      "source": 3
    }
  ]
}
