{
  "accessors": [
    {
      "bufferView": 2,
      "componentType": 5126,
      "count": 5122,
      "max": [
        0.4910680651664734,
        0.6057962775230408,
        0.4910666048526764
      ],
      "min": [
        -0.49106815457344055,
        0.5648055672645569,
        -0.4910610020160675
      ],
      "type": "VEC3"
    },
    {
      "bufferView": 2,
      "byteOffset": 61464,
      "componentType": 5126,
      "count": 5122,
      "max": [
        0.9988045692443848,
        1.0,
        0.9988008141517639
      ],
      "min": [
        -1.0,
        -1.0,
        -0.9988030195236206
      ],
      "type": "VEC3"
    },
    {
      "bufferView": 3,
      "componentType": 5126,
      "count": 5122,
      "max": [
        1.0,
        1.0,
        0.6808813214302063,
        1.0
      ],
      "min": [
        -0.9988030195236206,
        -1.0,
        -0.6743263006210327,
        -1.0
      ],
      "type": "VEC4"
    },
    {
      "bufferView": 1,
      "componentType": 5126,
      "count": 5122,
      "max": [
        0.9910680055618286,
        0.9910609722137451
      ],
      "min": [
        0.008931845426559448,
        0.008933395147323608
      ],
      "type": "VEC2"
    },
    {
      "bufferView": 1,
      "byteOffset": 40976,
      "componentType": 5126,
      "count": 5122,
      "max": [
        0.9910680055618286,
        0.9910609722137451
      ],
      "min": [
        0.008931845426559448,
        0.008933395147323608
      ],
      "type": "VEC2"
    },
    {
      "bufferView": 1,
      "byteOffset": 81952,
      "componentType": 5126,
      "count": 5122,
      "max": [
        0.9910680055618286,
        0.9910609722137451
      ],
      "min": [
        0.008931845426559448,
        0.008933395147323608
      ],
      "type": "VEC2"
    },
    {
      "bufferView": 1,
      "byteOffset": 122928,
      "componentType": 5126,
      "count": 5122,
      "max": [
        0.9910680055618286,
        0.9910609722137451
      ],
      "min": [
        0.008931845426559448,
        0.008933395147323608
      ],
      "type": "VEC2"
    },
    {
      "bufferView": 0,
      "componentType": 5125,
      "count": 8670,
      "type": "SCALAR"
    }
  ],
  "asset": {
    "extras": {
      "author": "RadioactiveAG (https://sketchfab.com/RadioactiveAG)",
      "license": "CC-BY-4.0 (http://creativecommons.org/licenses/by/4.0/)",
      "source": "https://sketchfab.com/3d-models/metal-vent-001-8fd1b9c4c6cc49a4be00b108fc59f0cf",
      "title": "Metal Vent 001"
    },
    "generator": "Sketchfab-15.13.0",
    "version": "2.0"
  },
  "bufferViews": [
    {
      "buffer": 0,
      "byteLength": 34680,
      "name": "floatBufferViews",
      "target": 34963
    },
    {
      "buffer": 0,
      "byteLength": 163904,
      "byteOffset": 34680,
      "byteStride": 8,
      "name": "floatBufferViews",
      "target": 34962
    },
    {
      "buffer": 0,
      "byteLength": 122928,
      "byteOffset": 198584,
      "byteStride": 12,
      "name": "floatBufferViews",
      "target": 34962
    },
    {
      "buffer": 0,
      "byteLength": 81952,
      "byteOffset": 321512,
      "byteStride": 16,
      "name": "floatBufferViews",
      "target": 34962
    }
  ],
  "buffers": [
    {
      "byteLength": 403464,
      "uri": "scene.bin"
    }
  ],
  "images": [
    {
      "uri": "textures/metal_vent_001_Diffuse_baseColor.png"
    },
    {
      "uri": "textures/metal_vent_001_Diffuse_metallicRoughness.png"
    },
    {
      "uri": "textures/metal_vent_001_Diffuse_normal.png"
    }
  ],
  "materials": [
    {
      "doubleSided": true,
      "name": "metal_vent_001_Diffuse",
      "normalTexture": {
        "index": 2,
        "scale": 0.25
      },
      "pbrMetallicRoughness": {
        "baseColorTexture": {
          "index": 0
        },
        "metallicRoughnessTexture": {
          "index": 1
        }
      }
    }
  ],
  "meshes": [
    {
      "name": "Object_0",
      "primitives": [
        {
          "attributes": {
            "NORMAL": 1,
            "POSITION": 0,
            "TANGENT": 2,
            "TEXCOORD_0": 3,
            "TEXCOORD_1": 4,
            "TEXCOORD_2": 5,
            "TEXCOORD_3": 6
          },
          "indices": 7,
          "material": 0,
          "mode": 4
        }
      ]
    }
  ],
  "nodes": [
    {
      "children": [
        1
      ],
      "matrix": [
        1.0,
        0.0,
        0.0,
        0.0,
        0.0,
        2.220446049250313e-16,
        -1.0,
        0.0,
        0.0,
        1.0,
        2.220446049250313e-16,
        0.0,
        0.0,
        0.0,
        0.0,
        1.0
      ],
      "name": "Sketchfab_model"
    },
    {
      "children": [
        2
      ],
      "name": "root"
    },
    {
      "children": [
        3
      ],
      "matrix": [
        1.0,
        0.0,
        0.0,
        0.0,
        0.0,
        2.220446049250313e-16,
        1.0,
        0.0,
        0.0,
        -1.0,
        2.220446049250313e-16,
        0.0,
        0.0,
        0.0,
        0.0,
        1.0
      ],
      "name": "GLTF_SceneRootNode"
    },
    {
      "children": [
        4
      ],
      "matrix": [
        1.0,
        0.0,
        0.0,
        0.0,
        0.0,
        0.0,
        1.0,
        0.0,
        0.0,
        -1.0,
        0.0,
        0.0,
        0.0,
        0.0,
        -0.5639743804931641,
        1.0
      ],
      "name": "metal vent 001_Diffuse.001_0"
    },
    {
      "mesh": 0,
      "name": "Object_4"
    }
  ],
  "samplers": [
    {
      "magFilter": 9729,
      "minFilter": 9987,
      "wrapS": 10497,
      "wrapT": 10497
    }
  ],
  "scene": 0,
  "scenes": [
    {
      "name": "Sketchfab_Scene",
      "nodes": [
        0
      ]
    }
  ],
  "textures": [
    {
      "sampler": 0,
      "source": 0
    },
    {
      "sampler": 0,
      "source": 1
    },
    {
      "sampler": 0,
      "source": 2
    }
  ]
}
